<svg id="Layer_1" data-name="Layer 1" xmlns="http://www.w3.org/2000/svg" viewBox="0 0 200 112"><defs><style>.cls-1{fill:#fff;}</style></defs><title>unvrs</title><g id="uvs"><path class="cls-1" d="M34.29,68.988q-2.11-2.447-2.109-7.266v-17.1h.6V61.872q0,9,8.021,9t8.02-9V44.626h.6V61.684q0,4.857-2.109,7.3T40.8,71.437Q36.4,71.437,34.29,68.988Z"/><path class="cls-1" d="M67.426,49.559l-1.393-2.184-.791-1.281v24.89h-.565V44.626h.263L78.873,66.014l2.3,3.615v-25h.565V70.984h-.377Z"/><path class="cls-1" d="M93.634,44.626h.64l8.66,21.651q.714,1.734,1.468,3.766l.3-.753,1.242-3.163,8.547-21.5h.641l-10.619,26.7h-.227Z"/><path class="cls-1" d="M142.4,70.984H141.6L130.761,58.031v-.263h2.6q4.029,0,6.081-1.582a5.788,5.788,0,0,0,2.052-4.9,5.956,5.956,0,0,0-1.656-4.519,6.838,6.838,0,0,0-4.9-1.582h-7.3V70.984h-.6V44.626h7.983a7.459,7.459,0,0,1,5.234,1.694,6.221,6.221,0,0,1,1.845,4.82q0,3.691-2.165,5.441t-6.42,1.751h-1.733Z"/><path class="cls-1" d="M156.328,71.06a17.985,17.985,0,0,1-3.163-1.055v-.64a21.5,21.5,0,0,0,3.2,1.13,15.748,15.748,0,0,0,3.8.376,8.434,8.434,0,0,0,5.535-1.6,5.448,5.448,0,0,0,1.921-4.424,5.875,5.875,0,0,0-.96-3.446,7.4,7.4,0,0,0-2.353-2.184,36.07,36.07,0,0,0-3.766-1.826,32.137,32.137,0,0,1-3.747-1.808,7.552,7.552,0,0,1-2.372-2.184,5.717,5.717,0,0,1-.96-3.389,5.2,5.2,0,0,1,1.9-4.236,7.858,7.858,0,0,1,5.14-1.563,17.968,17.968,0,0,1,6.74,1.168v.6A23.162,23.162,0,0,0,164.1,45.1a18,18,0,0,0-3.6-.321,7,7,0,0,0-4.763,1.469,4.777,4.777,0,0,0-1.676,3.765,5.191,5.191,0,0,0,.9,3.107,7.211,7.211,0,0,0,2.259,2.052A32.211,32.211,0,0,0,160.81,56.9a35.4,35.4,0,0,1,3.878,1.9,7.861,7.861,0,0,1,2.523,2.372,6.356,6.356,0,0,1,1.017,3.672,5.953,5.953,0,0,1-2.109,4.839,9.069,9.069,0,0,1-5.95,1.751A17.14,17.14,0,0,1,156.328,71.06Z"/></g></svg>